<?xml version="1.0" standalone="no"?>
<!DOCTYPE svg PUBLIC "-//W3C//DTD SVG 20010904//EN"
 "http://www.w3.org/TR/2001/REC-SVG-20010904/DTD/svg10.dtd">
<svg version="1.0" xmlns="http://www.w3.org/2000/svg"
 width="308.000000pt" height="339.000000pt" viewBox="0 0 308.000000 339.000000"
 preserveAspectRatio="xMidYMid meet">

<g transform="translate(0.000000,339.000000) scale(0.100000,-0.100000)"
fill="#000000" stroke="none">
<path d="M1445 2979 c-141 -40 -330 -145 -465 -258 -30 -25 -61 -50 -68 -56
-34 -26 -158 -176 -187 -226 -59 -101 -78 -168 -73 -257 6 -100 33 -158 115
-239 70 -70 175 -126 307 -165 43 -12 80 -27 81 -33 2 -5 8 -55 15 -110 12
-102 26 -220 35 -287 7 -52 -7 -49 -85 18 -108 92 -140 96 -211 25 -29 -28
-49 -57 -49 -70 0 -72 61 -84 111 -21 18 22 38 40 46 40 14 0 193 -87 193 -94
0 -2 -7 -23 -15 -46 -31 -88 -10 -229 41 -271 28 -23 16 -37 -28 -33 -38 4
-41 3 -24 -8 10 -7 46 -33 79 -58 115 -86 153 -96 230 -60 57 27 88 70 108
150 13 54 19 64 35 62 24 -5 30 -15 38 -64 18 -112 128 -187 232 -158 24 7 68
34 100 61 32 27 66 52 77 55 32 10 12 29 -26 26 -21 -2 -37 -1 -37 2 0 3 11
22 25 42 48 71 56 174 20 260 l-14 35 101 49 c56 28 109 50 119 50 10 0 33
-18 50 -40 38 -47 71 -52 94 -16 12 18 13 29 5 52 -22 56 -84 104 -135 104
-35 0 -58 -13 -139 -82 -91 -76 -99 -75 -92 5 3 34 11 124 17 199 l12 136 62
32 c79 40 181 132 223 202 65 109 77 268 33 439 -74 290 -304 534 -573 609
-100 28 -284 27 -383 -1z m291 0 c129 -23 220 -70 315 -162 245 -235 348 -631
228 -875 -29 -59 -100 -140 -163 -185 l-28 -20 7 50 c8 59 3 65 -90 125 -78
51 -170 94 -220 103 l-40 8 45 15 c101 34 155 89 185 187 8 28 14 68 14 90
l-1 40 -14 -42 c-34 -94 -157 -178 -307 -209 -129 -26 -273 0 -431 77 -65 32
-76 35 -60 17 53 -62 155 -130 229 -154 28 -8 57 -18 65 -21 8 -3 -8 -11 -37
-19 -65 -17 -131 -47 -209 -96 -60 -37 -60 -37 -125 -27 -173 27 -297 95 -357
198 -22 38 -26 57 -26 116 1 115 59 212 219 369 138 136 341 288 470 353 55
28 158 58 230 66 17 2 33 5 36 6 3 0 32 -4 65 -10z m108 -1032 c37 -15 95 -43
128 -63 l60 -37 -7 -101 c-4 -56 -9 -104 -10 -107 -2 -3 -41 7 -87 22 -94 32
-238 59 -307 59 -72 0 -211 -26 -296 -55 -43 -14 -80 -24 -82 -21 -3 2 -9 40
-14 83 -5 43 -11 88 -14 100 -4 18 5 28 59 58 134 75 219 95 381 91 101 -2
131 -7 189 -29z m6 -307 c130 -36 160 -50 160 -74 0 -38 -22 -251 -26 -255 -2
-2 -27 4 -56 13 -181 59 -403 60 -596 1 -30 -9 -56 -14 -58 -12 -4 4 -15 92
-28 225 -5 51 -4 52 27 65 36 15 176 53 222 61 72 11 281 -3 355 -24z m-56
-375 c33 -9 96 -28 139 -42 70 -24 80 -31 93 -61 20 -49 17 -173 -5 -172 -3 1
-15 20 -27 43 -30 61 -86 96 -152 97 -62 0 -86 -11 -125 -56 -25 -28 -32 -32
-53 -23 -14 5 -37 6 -50 3 -20 -5 -33 0 -57 24 -18 16 -42 35 -54 41 -31 16
-119 14 -153 -4 -29 -15 -72 -65 -83 -97 -16 -45 -37 2 -37 83 0 66 15 88 77
116 141 62 348 82 487 48z m114 -191 c53 -35 82 -120 63 -184 -32 -109 -171
-123 -232 -23 -47 76 -22 175 56 213 42 22 73 20 113 -6z m-399 -9 c65 -55 66
-158 2 -225 -34 -36 -43 -40 -88 -40 -57 0 -93 22 -119 73 -33 63 7 182 70
207 44 18 103 11 135 -15z"/>
<path d="M1485 2745 c-63 -46 -237 -136 -393 -205 -165 -72 -263 -154 -297
-250 -22 -64 -18 -80 10 -34 31 51 104 102 280 194 213 111 363 217 449 318
26 30 21 27 -49 -23z"/>
<path d="M1671 741 c-8 -5 -36 -7 -62 -4 -45 5 -51 3 -109 -41 -74 -55 -117
-61 -148 -21 -38 48 -57 25 -21 -26 31 -44 75 -63 150 -63 53 0 74 5 112 27
l47 28 46 -27 c83 -49 215 -34 258 28 18 25 21 58 6 58 -5 0 -10 -4 -10 -9 0
-5 -7 -17 -16 -25 -27 -28 -68 -19 -131 28 -63 48 -100 62 -122 47z"/>
</g>
</svg>
